<?xml version="1.0" standalone="no"?>
<!DOCTYPE svg PUBLIC "-//W3C//DTD SVG 20010904//EN"
 "http://www.w3.org/TR/2001/REC-SVG-20010904/DTD/svg10.dtd">
<svg version="1.0" xmlns="http://www.w3.org/2000/svg"
 width="234.000000pt" height="228.000000pt" viewBox="0 0 234.000000 228.000000"
 preserveAspectRatio="xMidYMid meet">

<g transform="translate(0.000000,228.000000) scale(0.100000,-0.100000)"
fill="#000000" stroke="none">
<path d="M600 2134 c-52 -9 -147 -48 -197 -81 -91 -60 -153 -141 -194 -253
l-24 -65 0 -595 0 -595 24 -65 c57 -154 158 -255 311 -311 l65 -24 595 0 595
0 65 24 c153 56 254 157 311 311 l24 65 0 595 0 595 -24 65 c-56 151 -153 250
-306 311 l-60 24 -580 1 c-319 1 -591 0 -605 -2z m205 -599 c82 -37 161 -75
175 -85 14 -10 51 -59 82 -110 l57 -92 9 39 c6 21 13 50 16 65 7 31 34 42 77
33 29 -7 30 -8 14 -26 -13 -13 -16 -27 -11 -53 4 -20 11 -38 15 -40 5 -3 34
34 65 83 31 49 67 96 81 105 21 14 261 123 322 147 21 8 22 6 12 -19 -14 -37
-75 -99 -129 -129 -123 -70 -140 -86 -214 -198 -40 -60 -99 -158 -131 -217
-32 -60 -62 -108 -66 -108 -4 0 -31 44 -60 98 -76 141 -190 312 -233 350 -20
17 -60 44 -89 58 -71 36 -120 78 -145 123 -12 21 -22 42 -22 46 0 9 -11 13
175 -70z m-2 -154 c94 -56 110 -77 50 -67 -60 11 -145 58 -170 95 -33 48 -31
68 5 43 15 -11 66 -43 115 -71z m884 42 c-8 -15 -23 -36 -34 -45 -25 -23 -99
-55 -147 -64 -61 -11 -42 14 56 71 46 28 96 58 109 68 29 21 35 9 16 -30z
m-804 -158 c52 -8 58 -24 14 -39 -37 -13 -112 19 -145 62 l-25 32 54 -24 c30
-14 76 -28 102 -31z m727 24 c-25 -45 -119 -81 -159 -60 -32 18 -25 28 25 36
25 3 64 15 87 25 55 24 60 24 47 -1z m-644 -135 c-8 -20 -40 -17 -67 6 l-24
19 32 1 c17 0 35 5 39 11 9 16 28 -17 20 -37z m495 26 c20 0 21 -2 9 -14 -24
-24 -69 -31 -76 -12 -3 9 -3 23 0 31 4 12 10 14 25 5 11 -5 30 -10 42 -10z
m-360 -369 c-10 -51 -21 -94 -24 -97 -3 -3 -18 2 -34 12 -15 10 -29 19 -31 20
-2 1 20 38 49 83 28 45 53 80 55 78 2 -2 -4 -45 -15 -96z m218 -83 c-18 -11
-35 -16 -39 -11 -7 7 -40 166 -40 188 0 6 25 -28 55 -74 l55 -84 -31 -19z
m-120 60 c7 -35 14 -71 17 -80 4 -15 -1 -18 -34 -18 l-39 0 16 80 c8 44 18 80
22 80 3 0 12 -28 18 -62z"/>
</g>
</svg>
